<?xml version="1.0" encoding="utf-8"?>
<!-- Generator: Adobe Illustrator 18.1.1, SVG Export Plug-In . SVG Version: 6.00 Build 0)  -->
<svg version="1.1" baseProfile="tiny" id="Layer_1" xmlns="http://www.w3.org/2000/svg" xmlns:xlink="http://www.w3.org/1999/xlink"
	 x="0px" y="0px" viewBox="-280 372 50 50" xml:space="preserve">
<g>
	<path fill="#0E6BAD" d="M-263.3,382.6c-0.3,0-0.6,0.3-0.6,0.6v4c0,0.3,0.3,0.6,0.6,0.6h8.4c0.3,0,0.6-0.3,0.6-0.6c0,0,0-0.1,0-0.1
		c-0.1-1.2-0.3-2.4-0.4-3.4c0-0.6-0.5-1.1-1.1-1.1H-263.3z M-255.6,386.6h-7.1v-2.8h6.8L-255.6,386.6z"/>
</g>
<g>
	<path fill="#0E6BAD" d="M-265,380.9h10.8c0.7,0,1.3,0.6,1.3,1.3c0,0.1,0.2,2.3,0.4,4.5c0.1,1.3,0.2,2.3,0.3,3.1
		c0.2,1.4,0.3,1.9,0.9,1.9h10.8c0.7,0,1.3,0.6,1.3,1.3v2.6c0,0.3,0.3,0.6,0.6,0.6s0.6-0.3,0.6-0.6V393c0-1.4-1.1-2.5-2.5-2.5h-2.4
		v-2.9c0-0.3-0.3-0.6-0.6-0.6c-0.3,0-0.6,0.3-0.6,0.6v2.9h-2.3l0-3.7l0.8-2c0.1-0.1,0.1-0.3,0-0.5c-0.1-0.1-0.2-0.3-0.3-0.3
		c-0.3-0.1-0.7,0-0.8,0.3l-0.8,2.2c0,0,0,0.1,0,0.1l0,3.8h-3.4l0-0.2c-0.2-1.4-0.6-5.2-0.8-8.1c0-1.4-1.1-2.5-2.5-2.5H-265
		c-1.4,0-2.5,1.1-2.5,2.5v5.3c0,0.3,0.3,0.6,0.6,0.6s0.6-0.3,0.6-0.6v-5.3C-266.3,381.5-265.7,380.9-265,380.9z"/>
</g>
<path fill="#0E6BAD" d="M-269,410l0.2,0.1c0.1,0.1,0.3,0.1,0.4,0.2l0.2,0.1v0.5c0,0.9,0.7,1.6,1.6,1.6h3.6c0.9,0,1.6-0.7,1.6-1.6
	v-0.5l0.2-0.1c0.1-0.1,0.3-0.1,0.4-0.2l0.2-0.1l0.4,0.4c0.6,0.6,1.7,0.6,2.3,0l2.5-2.5c0.6-0.6,0.6-1.6,0-2.3l-0.4-0.4l0.1-0.2
	c0.1-0.1,0.1-0.3,0.2-0.4l0.1-0.2h0.5c0.7,0,1.4-0.5,1.5-1.2l0.1-0.2h5.3l-0.3,1.4c-0.1,0.3,0,0.7,0.2,0.9c0.2,0.2,0.4,0.4,0.6,0.5
	l0.4,0.1l-0.4,0.3c-0.5,0.4-0.6,1.1-0.3,1.6l1.2,1.9c0.3,0.5,1,0.7,1.6,0.4l0.4-0.2l-0.1,0.5c0,0.3,0,0.6,0.2,0.8
	c0.2,0.3,0.5,0.5,0.8,0.5l2.2,0.5c0.6,0.1,1.2-0.2,1.4-0.8l0.1-0.4l0.3,0.4c0.4,0.5,1.1,0.6,1.6,0.3l1.9-1.2c0.5-0.3,0.7-1,0.4-1.6
	l-0.2-0.4l0.5,0.1c0.6,0.1,1.2-0.4,1.3-1l0.5-2.2c0.1-0.6-0.2-1.2-0.8-1.4l-0.4-0.1l0.4-0.3c0.2-0.2,0.4-0.4,0.4-0.7
	c0.1-0.3,0-0.7-0.2-0.9l-1.2-1.9c-0.3-0.5-1-0.7-1.6-0.4l-0.4,0.2l0.1-0.5c0.1-0.6-0.3-1.2-1-1.3l-2.2-0.5c-0.6-0.1-1.2,0.2-1.4,0.8
	l-0.1,0.4l-0.3-0.4c-0.4-0.5-1.1-0.6-1.6-0.3l-1.9,1.2c-0.3,0.2-0.5,0.4-0.5,0.8c-0.1,0.3,0,0.6,0.1,0.8l0.2,0.4l-0.5-0.1
	c-0.4,0-0.9,0.1-1.1,0.5l-0.1,0.1h-5.6v-2.7c0-0.9-0.7-1.6-1.6-1.6h-0.5l-0.1-0.2c-0.1-0.1-0.1-0.3-0.2-0.4l-0.1-0.2l0.4-0.4
	c0.3-0.3,0.5-0.7,0.5-1.1c0-0.4-0.2-0.8-0.5-1.1l-2.5-2.5c-0.6-0.6-1.7-0.6-2.3,0l-0.4,0.4l-0.2-0.1c-0.1-0.1-0.3-0.1-0.4-0.2
	l-0.2-0.1v-0.5c0-0.9-0.7-1.6-1.6-1.6h-3.6c-0.9,0-1.6,0.7-1.6,1.6v0.5l-0.2,0.1c-0.1,0.1-0.3,0.1-0.4,0.2l-0.2,0.1l-0.4-0.4
	c-0.6-0.6-1.7-0.6-2.3,0l-2.5,2.5c-0.3,0.3-0.5,0.7-0.5,1.1s0.2,0.8,0.5,1.1l0.4,0.4l-0.1,0.2c-0.1,0.1-0.1,0.3-0.2,0.4l-0.1,0.2
	h-0.5c-0.9,0-1.6,0.7-1.6,1.6v3.6c0,0.9,0.7,1.6,1.6,1.6h0.5l0.1,0.2c0.1,0.1,0.1,0.3,0.2,0.4l0.1,0.2l-0.4,0.4
	c-0.3,0.3-0.5,0.7-0.5,1.1s0.2,0.8,0.5,1.1l2.5,2.5c0.6,0.6,1.7,0.6,2.3,0L-269,410z M-241.2,411.3l-2.3-0.5l0.1-0.6
	c0.1-0.3-0.1-0.5-0.3-0.6c-0.2-0.1-0.5-0.3-0.7-0.5c-0.2-0.2-0.5-0.2-0.7,0l-0.5,0.3l-1.3-2l0.5-0.3c0.2-0.1,0.3-0.4,0.3-0.7
	c-0.1-0.3-0.1-0.6-0.2-0.9c0-0.3-0.2-0.5-0.5-0.5l-0.6-0.1l0.5-2.3l0.6,0.1c0.3,0.1,0.5-0.1,0.6-0.3c0.1-0.3,0.3-0.5,0.5-0.7
	c0.2-0.2,0.2-0.5,0-0.7l-0.3-0.5l2-1.3l0.3,0.5c0.1,0.2,0.4,0.3,0.7,0.3c0.3-0.1,0.6-0.1,0.9-0.2c0.3,0,0.5-0.2,0.5-0.5l0.1-0.6
	l2.3,0.5l-0.1,0.6c-0.1,0.3,0.1,0.5,0.3,0.6c0.2,0.1,0.5,0.3,0.7,0.5c0.2,0.2,0.5,0.2,0.7,0l0.5-0.3l1.3,2l-0.5,0.3
	c-0.2,0.1-0.3,0.4-0.3,0.7c0.1,0.3,0.1,0.6,0.2,0.9c0,0.3,0.2,0.5,0.5,0.5l0.6,0.1l-0.5,2.3l-0.6-0.1c-0.3-0.1-0.5,0.1-0.6,0.3
	c-0.1,0.3-0.3,0.5-0.5,0.7c-0.2,0.2-0.2,0.5,0,0.7l0.3,0.5l-2,1.3l-0.3-0.5c-0.1-0.2-0.4-0.3-0.7-0.3c-0.3,0.1-0.6,0.1-0.9,0.2
	c-0.3,0-0.5,0.2-0.5,0.5L-241.2,411.3z M-263,411.2h-3.6c-0.2,0-0.4-0.2-0.4-0.4v-0.9c0-0.3-0.2-0.5-0.4-0.6
	c-0.5-0.1-0.9-0.3-1.3-0.6c-0.2-0.1-0.5-0.1-0.7,0.1l-0.7,0.7c-0.2,0.2-0.4,0.2-0.6,0l-2.5-2.5c-0.1-0.1-0.1-0.2-0.1-0.3
	c0-0.1,0-0.2,0.1-0.3l0.7-0.7c0.2-0.2,0.2-0.5,0.1-0.7c-0.2-0.4-0.4-0.9-0.6-1.3c-0.1-0.2-0.3-0.4-0.6-0.4h-0.9
	c-0.2,0-0.4-0.2-0.4-0.4v-3.6c0-0.2,0.2-0.4,0.4-0.4h0.9c0.3,0,0.5-0.2,0.6-0.4c0.1-0.5,0.3-0.9,0.6-1.3c0.1-0.2,0.1-0.5-0.1-0.7
	l-0.7-0.7c-0.1-0.1-0.1-0.2-0.1-0.3s0-0.2,0.1-0.3l2.5-2.5c0.2-0.2,0.4-0.2,0.6,0l0.7,0.7c0.2,0.2,0.5,0.2,0.7,0.1
	c0.4-0.2,0.9-0.4,1.3-0.6c0.2-0.1,0.4-0.3,0.4-0.6v-0.9c0-0.2,0.2-0.4,0.4-0.4h3.6c0.2,0,0.4,0.2,0.4,0.4v0.9c0,0.3,0.2,0.5,0.4,0.6
	c0.5,0.1,0.9,0.3,1.3,0.6c0.2,0.1,0.5,0.1,0.7-0.1l0.7-0.7c0.2-0.2,0.4-0.2,0.6,0l2.5,2.5c0.1,0.1,0.1,0.2,0.1,0.3
	c0,0.1,0,0.2-0.1,0.3l-0.7,0.7c-0.2,0.2-0.2,0.5-0.1,0.7c0.2,0.4,0.4,0.9,0.6,1.3c0.1,0.2,0.3,0.4,0.6,0.4h0.9
	c0.2,0,0.4,0.2,0.4,0.4v3.6c0,0.2-0.2,0.4-0.4,0.4h-0.9c-0.3,0-0.5,0.2-0.6,0.4c-0.1,0.5-0.3,0.9-0.6,1.3c-0.1,0.2-0.1,0.5,0.1,0.7
	l0.7,0.7c0.2,0.2,0.2,0.4,0,0.6l-2.5,2.5c-0.2,0.2-0.4,0.2-0.6,0l-0.7-0.7c-0.2-0.2-0.5-0.2-0.7-0.1c-0.4,0.2-0.9,0.4-1.3,0.6
	c-0.2,0.1-0.4,0.3-0.4,0.6v0.9C-262.6,411.1-262.8,411.2-263,411.2z"/>
<path fill="#0E6BAD" d="M-244.2,393h-3.8c-0.4,0-0.7,0.3-0.7,0.7c0,0.4,0.3,0.7,0.7,0.7h3.8c0.4,0,0.7-0.3,0.7-0.7
	C-243.5,393.4-243.8,393-244.2,393z"/>
<path fill="#0E6BAD" d="M-244.3,395.7h-3.8c-0.4,0-0.7,0.3-0.7,0.7c0,0.4,0.3,0.7,0.7,0.7h3.8c0.4,0,0.7-0.3,0.7-0.7
	C-243.5,396.1-243.9,395.7-244.3,395.7z"/>
<circle fill="none" stroke="#0E6BAD" stroke-miterlimit="10" cx="-265" cy="400.9" r="4.5"/>
<circle fill="none" stroke="#0E6BAD" stroke-miterlimit="10" cx="-240.9" cy="404.8" r="2.7"/>
</svg>
