<?xml version="1.0" encoding="utf-8"?>
<!-- Generator: Adobe Illustrator 18.1.1, SVG Export Plug-In . SVG Version: 6.00 Build 0)  -->
<svg version="1.1" baseProfile="tiny" id="Layer_1" xmlns="http://www.w3.org/2000/svg" xmlns:xlink="http://www.w3.org/1999/xlink"
	 x="0px" y="0px" viewBox="-280 372 50 50" xml:space="preserve">
<g>
	<path fill="#0E6BAD" d="M-244.7,380h-21.2c-0.3,0-0.5,0.2-0.5,0.5v10.6c0,0.3,0.2,0.5,0.5,0.5h4.8v4.8h1.1v-4.8h9.5v4.4l-10.3,5.2
		l0.5,0.9l10.6-5.3c0.2-0.1,0.3-0.3,0.3-0.5v-4.8h4.8c0.3,0,0.5-0.2,0.5-0.5v-10.6C-244.2,380.2-244.4,380-244.7,380z M-265.4,390.6
		V381h4.2v9.5H-265.4z M-260.1,390.6V381h9.5v9.5H-260.1z M-245.2,390.6h-4.2V381h4.2V390.6z"/>
	
		<rect x="-261.2" y="403.8" transform="matrix(-0.8944 0.4472 -0.4472 -0.8944 -302.8147 880.2098)" fill="#0E6BAD" width="11.9" height="1.1"/>
	<path fill="#0E6BAD" d="M-250.2,406.5l-10.6,5.3c-0.2,0.1-0.3,0.4-0.3,0.6c0.1,0.2,0.3,0.4,0.5,0.4h10.6c0.3,0,0.5-0.2,0.5-0.5V407
		c0-0.2-0.1-0.4-0.3-0.5C-249.9,406.5-250.1,406.5-250.2,406.5z M-250.5,411.8h-7.8l7.8-3.9V411.8z"/>
</g>
</svg>
