<?xml version="1.0" encoding="utf-8"?>
<!-- Generator: Adobe Illustrator 18.1.1, SVG Export Plug-In . SVG Version: 6.00 Build 0)  -->
<svg version="1.1" baseProfile="tiny" id="Layer_1" xmlns="http://www.w3.org/2000/svg" xmlns:xlink="http://www.w3.org/1999/xlink"
	 x="0px" y="0px" viewBox="-280 372 50 50" xml:space="preserve">
<g>
	<path fill="#0E6BAD" d="M-254.8,383c-8,0-14.6,6.5-14.6,14.6c0,8,6.5,14.6,14.6,14.6c8,0,14.6-6.5,14.6-14.6
		C-240.3,389.6-246.8,383-254.8,383z M-254.8,410.8c-7.3,0-13.2-5.9-13.2-13.2c0-7.3,5.9-13.2,13.2-13.2c7.3,0,13.2,5.9,13.2,13.2
		C-241.6,404.9-247.6,410.8-254.8,410.8z"/>
	<path fill="#0E6BAD" d="M-254.8,390c-4.2,0-7.6,3.4-7.6,7.6c0,4.2,3.4,7.6,7.6,7.6c4.2,0,7.6-3.4,7.6-7.6
		C-247.2,393.4-250.6,390-254.8,390z M-254.8,403.8c-3.4,0-6.2-2.8-6.2-6.2c0-3.4,2.8-6.2,6.2-6.2s6.2,2.8,6.2,6.2
		C-248.6,401-251.4,403.8-254.8,403.8z"/>
	<path fill="#0E6BAD" d="M-268,383.7c0-0.4-0.3-0.7-0.7-0.7s-0.7,0.3-0.7,0.7c0,1.3-0.9,2.4-2.1,2.7v-2.7c0-0.4-0.3-0.7-0.7-0.7
		c-0.4,0-0.7,0.3-0.7,0.7v2.7c-1.2-0.3-2.1-1.4-2.1-2.7c0-0.4-0.3-0.7-0.7-0.7s-0.7,0.3-0.7,0.7c0,2.1,1.5,3.8,3.5,4.1v23.6
		c0,0.4,0.3,0.7,0.7,0.7c0.4,0,0.7-0.3,0.7-0.7v-23.6C-269.5,387.5-268,385.8-268,383.7z"/>
	<path fill="#0E6BAD" d="M-237.5,383c-0.4,0-0.7,0.3-0.7,0.7v27.7c0,0.4,0.3,0.7,0.7,0.7c0.4,0,0.7-0.3,0.7-0.7v-13.2
		c2-0.3,3.5-2,3.5-4.1v-6.9C-233.3,384.9-235.2,383-237.5,383z M-234.7,394.1c0,1.3-0.9,2.4-2.1,2.7v-12.3c1.2,0.3,2.1,1.4,2.1,2.7
		C-234.7,387.2-234.7,394.1-234.7,394.1z"/>
</g>
</svg>
