<?xml version="1.0" encoding="utf-8"?>
<!-- Generator: Adobe Illustrator 18.1.1, SVG Export Plug-In . SVG Version: 6.00 Build 0)  -->
<svg version="1.1" baseProfile="tiny" id="Layer_1" xmlns="http://www.w3.org/2000/svg" xmlns:xlink="http://www.w3.org/1999/xlink"
	 x="0px" y="0px" viewBox="-280 372 50 50" xml:space="preserve">
<path fill="#0E6BAD" d="M-240,393.6c-1.4,0-2.7,0.4-3.8,1l-2.1-3.2h2.3c0.4,0,0.7-0.3,0.7-0.7c0-0.4-0.3-0.7-0.7-0.7h-7.3
	c-0.4,0-0.7,0.3-0.7,0.7c0,0.4,0.3,0.7,0.7,0.7h2.3l-5.9,8.9l-6.4-9.6l4.4-6.6h2c0.4,0,0.7-0.3,0.7-0.7c0-0.4-0.3-0.7-0.7-0.7h-2.4
	c-0.2,0-0.5,0.1-0.6,0.3l-4.9,7.3h0l-2.9,4.3c-1.1-0.6-2.4-1-3.8-1c-4.4,0-8,3.6-8,8c0,4.4,3.6,8,8,8c4.4,0,8-3.6,8-8
	c0-2.5-1.2-4.8-3-6.2l2.3-3.4l6.7,10c0,0.1,0.1,0.1,0.1,0.1c0,0,0.1,0.1,0.1,0.1c0.1,0.1,0.2,0.1,0.4,0.1c0,0,0,0,0,0h6.6
	c0.4,4.1,3.8,7.3,8,7.3c4.4,0,8-3.6,8-8C-232,397.2-235.6,393.6-240,393.6z M-262.7,401.6c0,3.6-2.9,6.6-6.6,6.6s-6.6-2.9-6.6-6.6
	c0-3.6,2.9-6.6,6.6-6.6c1.1,0,2.1,0.3,3,0.8l-3.6,5.4c-0.2,0.3-0.1,0.8,0.2,1c0.1,0.1,0.3,0.1,0.4,0.1c0.2,0,0.5-0.1,0.6-0.3
	l3.6-5.4C-263.6,397.8-262.7,399.6-262.7,401.6z M-247.3,392l2.3,3.4c-1.6,1.3-2.8,3.3-3,5.5h-5.2L-247.3,392z M-244.3,396.6
	l2.8,4.3h-5.1C-246.3,399.2-245.5,397.7-244.3,396.6z M-240,408.2c-3.4,0-6.1-2.6-6.5-5.8h6.5c0,0,0,0,0,0c0.4,0,0.7-0.3,0.7-0.7
	c0-0.2-0.1-0.4-0.2-0.5l-3.5-5.3c0.9-0.5,1.9-0.8,3-0.8c3.6,0,6.6,2.9,6.6,6.6C-233.5,405.3-236.4,408.2-240,408.2z"/>
</svg>
