<?xml version="1.0" encoding="utf-8"?>
<!-- Generator: Adobe Illustrator 18.1.1, SVG Export Plug-In . SVG Version: 6.00 Build 0)  -->
<svg version="1.1" baseProfile="tiny" id="Layer_1" xmlns="http://www.w3.org/2000/svg" xmlns:xlink="http://www.w3.org/1999/xlink"
	 x="0px" y="0px" viewBox="-280 372 50 50" xml:space="preserve">
<g>
	<path fill="#0E6BAD" d="M-238.1,400.5v-6.4h-3c-0.3-1.4-0.9-2.8-1.7-4.1l2.1-2.1l-4.5-4.5l-2.1,2.1c-1.3-0.8-2.6-1.3-4.1-1.7v-3
		h-6.4v3c-1.4,0.3-2.8,0.9-4.1,1.7l-2.1-2.1l-4.5,4.5l2.1,2.1c-0.8,1.3-1.3,2.6-1.7,4.1h-3v6.4h3c0.3,1.4,0.9,2.8,1.7,4.1l-2.1,2.1
		l4.5,4.5l2.1-2.1c1.3,0.8,2.6,1.3,4.1,1.7v3h6.4v-3c1.4-0.3,2.8-0.9,4.1-1.7l2.1,2.1l4.5-4.5l-2.1-2.1c0.8-1.3,1.3-2.6,1.7-4.1
		C-241.2,400.5-238.1,400.5-238.1,400.5z M-242.1,399.8c-0.3,1.6-0.9,3.1-1.9,4.5l-0.2,0.4l2,2l-3,3l-2-2l-0.4,0.2
		c-1.4,0.9-2.9,1.5-4.5,1.9l-0.4,0.1v2.8h-4.2v-2.8l-0.4-0.1c-1.6-0.3-3.1-0.9-4.5-1.9l-0.4-0.2l-2,2l-3-3l2-2l-0.2-0.4
		c-0.9-1.4-1.5-2.9-1.9-4.5l-0.1-0.4h-2.8v-4.2h2.8l0.1-0.4c0.3-1.6,0.9-3.1,1.9-4.5l0.2-0.4l-2-2l3-3l2,2l0.4-0.2
		c1.4-0.9,2.9-1.5,4.5-1.9l0.4-0.1v-2.8h4.2v2.8l0.4,0.1c1.6,0.3,3.1,0.9,4.5,1.9l0.4,0.2l2-2l3,3l-2,2l0.2,0.4
		c0.9,1.4,1.5,2.9,1.9,4.5l0.1,0.4h2.8v4.2h-2.8L-242.1,399.8z"/>
	<path fill="#0E6BAD" d="M-254.6,394.1c-1.8,0-3.2,1.4-3.2,3.2s1.4,3.2,3.2,3.2c1.8,0,3.2-1.4,3.2-3.2
		C-251.4,395.5-252.8,394.1-254.6,394.1z M-254.6,399.4c-1.2,0-2.1-1-2.1-2.1c0-1.2,1-2.1,2.1-2.1s2.1,1,2.1,2.1
		C-252.5,398.5-253.4,399.4-254.6,399.4z"/>
</g>
</svg>
