<?xml version="1.0" encoding="utf-8"?>
<!-- Generator: Adobe Illustrator 18.1.1, SVG Export Plug-In . SVG Version: 6.00 Build 0)  -->
<svg version="1.1" baseProfile="tiny" id="Layer_1" xmlns="http://www.w3.org/2000/svg" xmlns:xlink="http://www.w3.org/1999/xlink"
	 x="0px" y="0px" viewBox="-280 372 50 50" xml:space="preserve">
<g>
	<path fill="#0E6BAD" d="M-260.2,413.6L-260.2,413.6c0.3,0.1,0.4,0.1,0.5,0.1h5.9v0.5c0,1,0.8,1.8,1.8,1.8h13.9c1,0,1.8-0.8,1.8-1.8
		v-10.3l0.6,0.6c0.2,0.2,0.5,0.2,0.7,0c0.2-0.2,0.2-0.5,0-0.7l-9.1-8.6c-0.5-0.5-1.5-0.5-2,0l-9.1,8.6c-0.2,0.2-0.2,0.5,0,0.7
		c0.2,0.2,0.5,0.2,0.7,0l0.6-0.6v8.8h-5.9c-0.4,0-0.7-0.3-0.7-0.7v-31.7c0-0.4,0.3-0.7,0.7-0.7h8.7c0.4,0,0.7,0.3,0.7,0.7v7.2
		c0,0.4,0.3,0.7,0.7,0.4l0.1,0l0.2,0l10,0c0.5,0,0.9,0.2,1,0.4l0,0.1v8.8c0,0.3,0.2,0.5,0.5,0.5s0.5-0.2,0.5-0.5v-8.7
		c0-0.9-0.9-1.5-2.1-1.5h-9.9v-6.6c0-0.9-0.8-1.7-1.7-1.7h-8.7c-1,0-1.7,0.8-1.7,1.7v12.3l-4-5.8c-0.5-0.7-1.5-0.7-1.9,0l-7.4,10.8
		c-0.1,0.1-0.1,0.2-0.1,0.3l0,14c0,1,1,1.7,2.3,1.7h12.1C-260.4,413.7-260.4,413.7-260.2,413.6L-260.2,413.6z M-238,415h-13.9
		c-0.4,0-0.8-0.4-0.8-0.8l0-11.2l0.1-0.1l7.4-7c0.2-0.2,0.5-0.2,0.6,0l7.5,7l0,0.2l0,11C-237.2,414.6-237.6,415-238,415z
		 M-261.3,412.7h-11.3c-0.7,0-1.3-0.4-1.3-0.7l0-13.9l0-0.1l7.4-10.8l5,7.2V412c0,0.1,0,0.2,0,0.4L-261.3,412.7z"/>
</g>
</svg>
