<?xml version="1.0" encoding="utf-8"?>
<!-- Generator: Adobe Illustrator 18.1.1, SVG Export Plug-In . SVG Version: 6.00 Build 0)  -->
<svg version="1.1" baseProfile="tiny" id="Layer_1" xmlns="http://www.w3.org/2000/svg" xmlns:xlink="http://www.w3.org/1999/xlink"
	 x="0px" y="0px" viewBox="-280 372 50 50" xml:space="preserve">
<g>
	<path fill="#0E6BAD" d="M-252.5,403.3h6.7v-6.7h-6.7C-252.5,396.6-252.5,403.3-252.5,403.3z M-251.4,397.7h4.5v4.5h-4.5
		C-251.4,402.2-251.4,397.7-251.4,397.7z"/>
	<path fill="#0E6BAD" d="M-272.1,379.8v11.8c0,1.7,1.2,3,2.8,3.3v19.6h29.1v-19.6c1.6-0.3,2.8-1.6,2.8-3.3v-11.8H-272.1z
		 M-265.4,380.9h4.5v10.6c0,1.2-1,2.2-2.2,2.2c-1.2,0-2.2-1-2.2-2.2L-265.4,380.9L-265.4,380.9z M-259.8,380.9h4.5v10.6
		c0,1.2-1,2.2-2.2,2.2s-2.2-1-2.2-2.2L-259.8,380.9L-259.8,380.9z M-254.2,380.9h4.5v10.6c0,1.2-1,2.2-2.2,2.2c-1.2,0-2.2-1-2.2-2.2
		L-254.2,380.9L-254.2,380.9z M-248.6,380.9h4.5v10.6c0,1.2-1,2.2-2.2,2.2c-1.2,0-2.2-1-2.2-2.2L-248.6,380.9L-248.6,380.9z
		 M-271,391.5v-10.6h4.5v10.6c0,1.2-1,2.2-2.2,2.2C-270,393.8-271,392.8-271,391.5z M-255.3,413.4h-7.3v-15.7h7.3V413.4z
		 M-254.2,413.4v-16.8h-9.5v16.8h-4.5v-18.5c0.9-0.2,1.7-0.7,2.2-1.5c0.6,0.9,1.6,1.5,2.8,1.5s2.2-0.6,2.8-1.5
		c0.6,0.9,1.6,1.5,2.8,1.5s2.2-0.6,2.8-1.5c0.6,0.9,1.6,1.5,2.8,1.5c1.2,0,2.2-0.6,2.8-1.5c0.6,0.9,1.6,1.5,2.8,1.5s2.2-0.6,2.8-1.5
		c0.5,0.8,1.3,1.3,2.2,1.5v18.5H-254.2z M-240.8,393.8c-1.2,0-2.2-1-2.2-2.2v-10.6h4.5v10.6C-238.5,392.8-239.5,393.8-240.8,393.8z"
		/>
</g>
</svg>
