<?xml version="1.0" encoding="utf-8"?>
<!-- Generator: Adobe Illustrator 18.1.1, SVG Export Plug-In . SVG Version: 6.00 Build 0)  -->
<svg version="1.1" baseProfile="tiny" id="Layer_1" xmlns="http://www.w3.org/2000/svg" xmlns:xlink="http://www.w3.org/1999/xlink"
	 x="0px" y="0px" viewBox="-280 372 50 50" xml:space="preserve">
<path fill="#0E6BAD" d="M-251.8,396.2c3.1-1.3,5.3-4.4,5.3-8c0-4.8-3.9-8.7-8.7-8.7s-8.7,3.9-8.7,8.7c0,3.6,2.2,6.7,5.3,8
	c-6.2,1.5-10.8,7.1-10.8,13.7v3.3h28.2v-3.3C-241,403.3-245.6,397.7-251.8,396.2z M-248.1,385.3c-1,0.5-2.1,0.7-3.2,0.7
	c-3.1,0-5.8-1.9-7-4.8c0.9-0.4,2-0.7,3.1-0.7C-252,380.6-249.3,382.6-248.1,385.3z M-259.8,382.2c-0.4,1.7-1.4,3.2-2.8,4.3
	C-262.1,384.8-261.1,383.3-259.8,382.2z M-262.7,388.2c0-0.1,0-0.2,0-0.3c2-1.2,3.4-3.1,3.9-5.3c1.5,2.7,4.4,4.4,7.5,4.4
	c1.2,0,2.4-0.3,3.5-0.8c0.2,0.6,0.2,1.2,0.2,1.9c0,4.2-3.4,7.6-7.6,7.6C-259.3,395.8-262.7,392.4-262.7,388.2z M-242.1,412.1h-26
	v-2.2c0-7.2,5.8-13,13-13c7.2,0,13,5.8,13,13V412.1z"/>
</svg>
