<?xml version="1.0" encoding="utf-8"?>
<!-- Generator: Adobe Illustrator 18.1.1, SVG Export Plug-In . SVG Version: 6.00 Build 0)  -->
<svg version="1.1" baseProfile="tiny" id="Layer_1" xmlns="http://www.w3.org/2000/svg" xmlns:xlink="http://www.w3.org/1999/xlink"
	 x="0px" y="0px" viewBox="-280 372 50 50" xml:space="preserve">
<path fill="#0E6BAD" d="M-240.8,381.8h-27.6c-1.5,0-2.7,1.2-2.7,2.7v22.3c0,1.5,1.2,2.7,2.7,2.7h8v4.2h-4.8v1.1h21.2v-1.1h-4.8v-4.2
	h8c1.5,0,2.7-1.2,2.7-2.7v-22.3C-238.2,383-239.4,381.8-240.8,381.8z M-268.4,382.8h27.6c0.9,0,1.6,0.7,1.6,1.6V403H-270v-18.6
	C-270,383.5-269.3,382.8-268.4,382.8z M-249.8,413.6h-9.6v-4.2h9.6V413.6z M-240.8,408.3h-27.6c-0.9,0-1.6-0.7-1.6-1.6v-2.7h30.8
	v2.7C-239.2,407.6-240,408.3-240.8,408.3z"/>
</svg>
