<?xml version="1.0" encoding="utf-8"?>
<!-- Generator: Adobe Illustrator 18.1.1, SVG Export Plug-In . SVG Version: 6.00 Build 0)  -->
<svg version="1.1" baseProfile="tiny" id="Layer_1" xmlns="http://www.w3.org/2000/svg" xmlns:xlink="http://www.w3.org/1999/xlink"
	 x="0px" y="0px" viewBox="-280 372 50 50" xml:space="preserve">
<path fill="#0E6BAD" d="M-236.4,385.3C-236.4,385.3-236.4,385.3-236.4,385.3c-0.1-0.1-0.1-0.1-0.1-0.2c0,0-0.1,0-0.1,0c0,0,0,0,0,0
	l-17.7-5.9c-0.1,0-0.3,0-0.4,0l-17.7,5.9c0,0,0,0,0,0c0,0-0.1,0-0.1,0c0,0-0.1,0.1-0.1,0.1c0,0,0,0-0.1,0.1
	c-0.1,0.1-0.1,0.2-0.1,0.3v23.5c0,0.3,0.2,0.5,0.4,0.6l17.7,5.9c0.1,0,0.1,0,0.2,0c0.1,0,0.1,0,0.2,0l17.7-5.9
	c0.2-0.1,0.4-0.3,0.4-0.6v-23.5C-236.3,385.5-236.3,385.4-236.4,385.3z M-254.5,380.4l15.8,5.3l-15.8,5.3l-15.8-5.3L-254.5,380.4z
	 M-271.6,386.5l16.5,5.5v22.3l-16.5-5.5V386.5z M-237.4,408.8l-16.5,5.5V392l16.5-5.5V408.8z"/>
</svg>
